<svg width="147" height="21" viewBox="0 0 147 21" fill="none" xmlns="http://www.w3.org/2000/svg">
<g id="Big Bang Social">
<path d="M2.15536 16.4339V14.2188H6.30871C7.08968 14.2188 7.70736 14.0271 8.16175 13.6437C8.61613 13.2603 8.84332 12.742 8.84332 12.0889C8.84332 11.3789 8.58773 10.8251 8.07655 10.4275C7.57957 10.0157 6.87669 9.81693 5.96792 9.83113H2.15536V7.8716L4.73257 7.9142C6.08152 7.9142 7.25298 8.07039 8.24694 8.38278C9.24091 8.68097 10.0077 9.14956 10.5473 9.78853C11.0868 10.4275 11.3566 11.2511 11.3566 12.2592C11.3566 13.1396 11.1578 13.8922 10.7603 14.517C10.3627 15.1417 9.80179 15.6174 9.07761 15.944C8.35344 16.2706 7.49437 16.4339 6.5004 16.4339H2.15536ZM0.941299 16.4339V1.52442H3.36941V16.4339H0.941299ZM2.09146 9.93763V7.7864H6.07442C6.78439 7.7864 7.33818 7.60181 7.73576 7.23262C8.14755 6.84924 8.35344 6.32385 8.35344 5.65648C8.35344 4.9749 8.11915 4.44952 7.65056 4.08033C7.19618 3.71115 6.5572 3.53365 5.73363 3.54785H2.09146V1.54572L5.86143 1.50312C6.88379 1.50312 7.76416 1.66642 8.50253 1.99301C9.25511 2.3054 9.83729 2.77398 10.2491 3.39876C10.6609 4.00934 10.8668 4.77611 10.8668 5.69908C10.8668 6.48005 10.6254 7.18292 10.1426 7.8077C9.67399 8.41828 8.99952 8.90106 8.11915 9.25605C7.25298 9.61104 6.23061 9.78853 5.05206 9.78853L2.09146 9.93763Z" fill="#1F1F1F"/>
<path d="M13.6847 16.4339L13.706 5.78427H16.0703L16.049 16.4339H13.6847ZM14.8775 3.76084C14.4941 3.76084 14.1604 3.62595 13.8764 3.35616C13.6066 3.07217 13.4718 2.73848 13.4718 2.35509C13.4718 1.97171 13.6066 1.64512 13.8764 1.37533C14.1604 1.10554 14.4941 0.970642 14.8775 0.970642C15.2609 0.970642 15.5875 1.10554 15.8573 1.37533C16.1413 1.64512 16.2833 1.97171 16.2833 2.35509C16.2833 2.73848 16.1413 3.07217 15.8573 3.35616C15.5875 3.62595 15.2609 3.76084 14.8775 3.76084Z" fill="#1F1F1F"/>
<path d="M23.4398 20.9706C22.6872 20.9706 22.0057 20.9067 21.3951 20.7789C20.7987 20.6512 20.2946 20.5021 19.8828 20.3317C19.471 20.1613 19.1516 19.998 18.9244 19.8418L19.8402 17.9248C20.039 18.0242 20.3017 18.1449 20.6283 18.2869C20.9691 18.4431 21.3667 18.578 21.8211 18.6916C22.2754 18.8052 22.7866 18.862 23.3546 18.862C23.9652 18.862 24.5119 18.7342 24.9946 18.4786C25.4774 18.2372 25.8537 17.861 26.1235 17.3498C26.3933 16.8386 26.5282 16.1854 26.5282 15.3902V5.78427H28.9137V15.3263C28.9137 16.5333 28.6865 17.5557 28.2321 18.3934C27.7778 19.2454 27.1388 19.8844 26.3152 20.3104C25.4916 20.7505 24.5332 20.9706 23.4398 20.9706ZM23.0777 16.2209C22.1121 16.2209 21.2673 16.0008 20.5431 15.5606C19.8331 15.1204 19.2722 14.5099 18.8605 13.7289C18.4629 12.9337 18.2641 12.0179 18.2641 10.9813C18.2641 9.87373 18.4629 8.91526 18.8605 8.10589C19.2722 7.29652 19.8331 6.66464 20.5431 6.21026C21.2673 5.75587 22.1121 5.52868 23.0777 5.52868C23.9439 5.52868 24.6965 5.75587 25.3354 6.21026C25.9886 6.66464 26.4927 7.30362 26.8477 8.12719C27.2027 8.93656 27.3802 9.89503 27.3802 11.0026C27.3802 12.0534 27.2027 12.9692 26.8477 13.7502C26.4927 14.5312 25.9886 15.1417 25.3354 15.5819C24.6965 16.0079 23.9439 16.2209 23.0777 16.2209ZM23.738 14.1975C24.2776 14.1975 24.7462 14.0555 25.1437 13.7715C25.5555 13.4875 25.875 13.1041 26.1022 12.6213C26.3294 12.1244 26.443 11.5564 26.443 10.9174C26.443 10.2642 26.3294 9.69624 26.1022 9.21345C25.875 8.71647 25.5555 8.33308 25.1437 8.06329C24.732 7.7793 24.2563 7.63731 23.7167 7.63731C23.1487 7.63731 22.6446 7.7793 22.2044 8.06329C21.7785 8.33308 21.4377 8.71647 21.1821 9.21345C20.9407 9.69624 20.82 10.2642 20.82 10.9174C20.82 11.5564 20.9407 12.1244 21.1821 12.6213C21.4377 13.1041 21.7856 13.4875 22.2257 13.7715C22.6659 14.0555 23.17 14.1975 23.738 14.1975Z" fill="#1F1F1F"/>
<path d="M38.3475 16.4339V14.2188H42.5008C43.2818 14.2188 43.8995 14.0271 44.3538 13.6437C44.8082 13.2603 45.0354 12.742 45.0354 12.0889C45.0354 11.3789 44.7798 10.8251 44.2686 10.4275C43.7717 10.0157 43.0688 9.81693 42.16 9.83113H38.3475V7.8716L40.9247 7.9142C42.2736 7.9142 43.4451 8.07039 44.439 8.38278C45.433 8.68097 46.1998 9.14956 46.7394 9.78853C47.2789 10.4275 47.5487 11.2511 47.5487 12.2592C47.5487 13.1396 47.3499 13.8922 46.9523 14.517C46.5548 15.1417 45.9939 15.6174 45.2697 15.944C44.5455 16.2706 43.6865 16.4339 42.6925 16.4339H38.3475ZM37.1334 16.4339V1.52442H39.5615V16.4339H37.1334ZM38.2836 9.93763V7.7864H42.2665C42.9765 7.7864 43.5303 7.60181 43.9279 7.23262C44.3396 6.84924 44.5455 6.32385 44.5455 5.65648C44.5455 4.9749 44.3112 4.44952 43.8427 4.08033C43.3883 3.71115 42.7493 3.53365 41.9257 3.54785H38.2836V1.54572L42.0535 1.50312C43.0759 1.50312 43.9563 1.66642 44.6946 1.99301C45.4472 2.3054 46.0294 2.77398 46.4412 3.39876C46.853 4.00934 47.0588 4.77611 47.0588 5.69908C47.0588 6.48005 46.8175 7.18292 46.3347 7.8077C45.8661 8.41828 45.1916 8.90106 44.3112 9.25605C43.4451 9.61104 42.4227 9.78853 41.2441 9.78853L38.2836 9.93763Z" fill="#1F1F1F"/>
<path d="M56.1814 16.4339L56.0749 14.4318V10.96C56.0749 10.2358 55.9968 9.63234 55.8406 9.14956C55.6844 8.66677 55.4359 8.29759 55.0951 8.04199C54.7686 7.7864 54.3355 7.65861 53.7959 7.65861C53.2989 7.65861 52.8587 7.7651 52.4753 7.9781C52.092 8.19109 51.7725 8.51768 51.5169 8.95786L49.3444 8.19109C49.5857 7.72251 49.8981 7.28232 50.2815 6.87053C50.6649 6.45875 51.1477 6.13216 51.7299 5.89077C52.3262 5.64938 53.0291 5.52868 53.8385 5.52868C54.8751 5.52868 55.7341 5.72038 56.4157 6.10376C57.1115 6.48715 57.6298 7.05513 57.9705 7.8077C58.3113 8.56028 58.4817 9.49034 58.4817 10.5979L58.4178 16.4339H56.1814ZM53.1569 16.6895C51.879 16.6895 50.885 16.4055 50.175 15.8375C49.4792 15.2695 49.1314 14.4673 49.1314 13.4307C49.1314 12.3231 49.5005 11.4783 50.2389 10.8961C50.9915 10.3139 52.0352 10.0228 53.3699 10.0228H56.224V11.8546H54.1367C53.1853 11.8546 52.5179 11.9895 52.1346 12.2592C51.7512 12.5148 51.5595 12.884 51.5595 13.3668C51.5595 13.7786 51.7228 14.1052 52.0494 14.3466C52.3901 14.5738 52.8587 14.6874 53.4551 14.6874C53.9805 14.6874 54.4349 14.5667 54.8183 14.3253C55.2158 14.0697 55.5211 13.7431 55.7341 13.3455C55.9613 12.9337 56.0749 12.4935 56.0749 12.025H56.9482C56.9482 13.4733 56.6358 14.6164 56.011 15.4541C55.4004 16.2777 54.4491 16.6895 53.1569 16.6895Z" fill="#1F1F1F"/>
<path d="M60.8974 16.4339V5.78427H63.1338L63.2829 7.7438V16.4339H60.8974ZM68.1178 16.4339V10.9813L70.5033 10.3423V16.4339H68.1178ZM68.1178 10.9813C68.1178 10.1293 68.0184 9.47614 67.8196 9.02176C67.635 8.55318 67.3652 8.22659 67.0103 8.04199C66.6695 7.8574 66.2648 7.7651 65.7962 7.7651C65.001 7.7509 64.3833 8.0136 63.9432 8.55318C63.503 9.09276 63.2829 9.86663 63.2829 10.8748H62.3883C62.3883 9.75303 62.5516 8.79457 62.8782 7.9994C63.2048 7.19002 63.6734 6.57945 64.2839 6.16766C64.8945 5.74167 65.6187 5.52868 66.4565 5.52868C67.7486 5.52868 68.7426 5.92627 69.4384 6.72144C70.1483 7.50241 70.5033 8.70937 70.5033 10.3423L68.1178 10.9813Z" fill="#1F1F1F"/>
<path d="M77.4991 20.9706C76.7466 20.9706 76.065 20.9067 75.4544 20.7789C74.858 20.6512 74.3539 20.5021 73.9422 20.3317C73.5304 20.1613 73.2109 19.998 72.9837 19.8418L73.8996 17.9248C74.0984 18.0242 74.361 18.1449 74.6876 18.2869C75.0284 18.4431 75.426 18.578 75.8804 18.6916C76.3348 18.8052 76.846 18.862 77.4139 18.862C78.0245 18.862 78.5712 18.7342 79.054 18.4786C79.5368 18.2372 79.913 17.861 80.1828 17.3498C80.4526 16.8386 80.5875 16.1854 80.5875 15.3902V5.78427H82.973V15.3263C82.973 16.5333 82.7459 17.5557 82.2915 18.3934C81.8371 19.2454 81.1981 19.8844 80.3745 20.3104C79.551 20.7505 78.5925 20.9706 77.4991 20.9706ZM77.137 16.2209C76.1715 16.2209 75.3266 16.0008 74.6024 15.5606C73.8925 15.1204 73.3316 14.5099 72.9198 13.7289C72.5222 12.9337 72.3234 12.0179 72.3234 10.9813C72.3234 9.87373 72.5222 8.91526 72.9198 8.10589C73.3316 7.29652 73.8925 6.66464 74.6024 6.21026C75.3266 5.75587 76.1715 5.52868 77.137 5.52868C78.0032 5.52868 78.7558 5.75587 79.3948 6.21026C80.048 6.66464 80.552 7.30362 80.907 8.12719C81.262 8.93656 81.4395 9.89503 81.4395 11.0026C81.4395 12.0534 81.262 12.9692 80.907 13.7502C80.552 14.5312 80.048 15.1417 79.3948 15.5819C78.7558 16.0079 78.0032 16.2209 77.137 16.2209ZM77.7973 14.1975C78.3369 14.1975 78.8055 14.0555 79.2031 13.7715C79.6149 13.4875 79.9343 13.1041 80.1615 12.6213C80.3887 12.1244 80.5023 11.5564 80.5023 10.9174C80.5023 10.2642 80.3887 9.69624 80.1615 9.21345C79.9343 8.71647 79.6149 8.33308 79.2031 8.06329C78.7913 7.7793 78.3156 7.63731 77.776 7.63731C77.208 7.63731 76.704 7.7793 76.2638 8.06329C75.8378 8.33308 75.497 8.71647 75.2414 9.21345C75 9.69624 74.8793 10.2642 74.8793 10.9174C74.8793 11.5564 75 12.1244 75.2414 12.6213C75.497 13.1041 75.8449 13.4875 76.2851 13.7715C76.7253 14.0555 77.2293 14.1975 77.7973 14.1975Z" fill="#1F1F1F"/>
<path d="M96.0916 16.6895C95.3106 16.6895 94.5935 16.5972 93.9403 16.4126C93.3014 16.228 92.7334 15.9724 92.2364 15.6458C91.7536 15.3192 91.3489 14.9572 91.0223 14.5596C90.7099 14.1478 90.4899 13.7218 90.3621 13.2816L92.7902 12.5361C92.9748 13.0615 93.3369 13.523 93.8764 13.9206C94.416 14.3182 95.0834 14.5241 95.8786 14.5383C96.8015 14.5383 97.5328 14.3466 98.0724 13.9632C98.612 13.5798 98.8818 13.0757 98.8818 12.4509C98.8818 11.883 98.6546 11.4215 98.2002 11.0665C97.7458 10.6973 97.1352 10.4133 96.3684 10.2145L94.5367 9.74593C93.8409 9.56134 93.2091 9.29155 92.6411 8.93656C92.0873 8.58158 91.6471 8.13429 91.3205 7.59471C91.0081 7.05513 90.8519 6.41615 90.8519 5.67778C90.8519 4.28623 91.3063 3.20706 92.2151 2.44029C93.1239 1.65932 94.4231 1.26883 96.1129 1.26883C97.0642 1.26883 97.8949 1.41793 98.6049 1.71612C99.329 2.00011 99.9254 2.39769 100.394 2.90887C100.863 3.40586 101.21 3.97384 101.438 4.61281L99.0521 5.37959C98.8392 4.81161 98.47 4.34302 97.9446 3.97384C97.4192 3.60465 96.766 3.42006 95.9851 3.42006C95.1757 3.42006 94.5367 3.61175 94.0681 3.99514C93.6137 4.37852 93.3866 4.911 93.3866 5.59258C93.3866 6.14636 93.564 6.57945 93.919 6.89183C94.2882 7.19002 94.7852 7.41722 95.41 7.57341L97.2417 8.0207C98.5765 8.34728 99.613 8.90816 100.351 9.70334C101.09 10.4985 101.459 11.3789 101.459 12.3444C101.459 13.1964 101.253 13.949 100.841 14.6022C100.43 15.2553 99.8189 15.7665 99.0096 16.1357C98.2144 16.5049 97.2417 16.6895 96.0916 16.6895Z" fill="#1F1F1F"/>
<path d="M108.644 16.6895C107.579 16.6895 106.628 16.4552 105.79 15.9866C104.967 15.5038 104.321 14.8436 103.852 14.0058C103.383 13.168 103.149 12.2024 103.149 11.1091C103.149 10.0157 103.376 9.05016 103.831 8.21239C104.299 7.37462 104.945 6.72144 105.769 6.25286C106.592 5.77007 107.537 5.52868 108.602 5.52868C109.667 5.52868 110.611 5.77007 111.435 6.25286C112.258 6.72144 112.897 7.37462 113.351 8.21239C113.82 9.05016 114.054 10.0157 114.054 11.1091C114.054 12.2024 113.827 13.168 113.373 14.0058C112.918 14.8436 112.279 15.5038 111.456 15.9866C110.632 16.4552 109.695 16.6895 108.644 16.6895ZM108.644 14.4957C109.226 14.4957 109.745 14.3537 110.199 14.0697C110.654 13.7715 111.009 13.3739 111.264 12.8769C111.52 12.3657 111.647 11.7765 111.647 11.1091C111.647 10.4417 111.513 9.85953 111.243 9.36255C110.987 8.85137 110.632 8.45378 110.178 8.16979C109.723 7.8716 109.198 7.72251 108.602 7.72251C108.005 7.72251 107.48 7.8645 107.026 8.14849C106.571 8.43248 106.216 8.83007 105.961 9.34125C105.705 9.85243 105.577 10.4417 105.577 11.1091C105.577 11.7765 105.705 12.3657 105.961 12.8769C106.23 13.3739 106.592 13.7715 107.047 14.0697C107.515 14.3537 108.048 14.4957 108.644 14.4957Z" fill="#1F1F1F"/>
<path d="M121.106 16.6895C120.012 16.6895 119.047 16.4552 118.209 15.9866C117.371 15.5038 116.711 14.8436 116.228 14.0058C115.759 13.168 115.525 12.2024 115.525 11.1091C115.525 10.0157 115.759 9.05016 116.228 8.21239C116.711 7.37462 117.364 6.72144 118.188 6.25286C119.025 5.77007 119.984 5.52868 121.063 5.52868C122.114 5.52868 123.065 5.78427 123.917 6.29546C124.769 6.79244 125.401 7.50951 125.813 8.44668L123.598 9.29865C123.37 8.83007 123.022 8.45378 122.554 8.16979C122.085 7.8858 121.553 7.7438 120.956 7.7438C120.374 7.7438 119.856 7.8929 119.402 8.19109C118.947 8.47508 118.592 8.87266 118.337 9.38385C118.081 9.88083 117.953 10.4559 117.953 11.1091C117.953 11.7623 118.081 12.3444 118.337 12.8556C118.606 13.3526 118.968 13.7502 119.423 14.0484C119.891 14.3324 120.417 14.4744 120.999 14.4744C121.595 14.4744 122.128 14.3253 122.596 14.0271C123.065 13.7147 123.413 13.2958 123.64 12.7704L125.855 13.6224C125.443 14.588 124.812 15.3405 123.96 15.8801C123.122 16.4197 122.17 16.6895 121.106 16.6895Z" fill="#1F1F1F"/>
<path d="M127.856 16.4339L127.878 5.78427H130.242L130.22 16.4339H127.856ZM129.049 3.76084C128.666 3.76084 128.332 3.62595 128.048 3.35616C127.778 3.07217 127.643 2.73848 127.643 2.35509C127.643 1.97171 127.778 1.64512 128.048 1.37533C128.332 1.10554 128.666 0.970642 129.049 0.970642C129.432 0.970642 129.759 1.10554 130.029 1.37533C130.313 1.64512 130.455 1.97171 130.455 2.35509C130.455 2.73848 130.313 3.07217 130.029 3.35616C129.759 3.62595 129.432 3.76084 129.049 3.76084Z" fill="#1F1F1F"/>
<path d="M139.486 16.4339L139.379 14.4318V10.96C139.379 10.2358 139.301 9.63234 139.145 9.14956C138.989 8.66677 138.74 8.29759 138.399 8.04199C138.073 7.7864 137.64 7.65861 137.1 7.65861C136.603 7.65861 136.163 7.7651 135.78 7.9781C135.396 8.19109 135.077 8.51768 134.821 8.95786L132.649 8.19109C132.89 7.72251 133.202 7.28232 133.586 6.87053C133.969 6.45875 134.452 6.13216 135.034 5.89077C135.63 5.64938 136.333 5.52868 137.143 5.52868C138.179 5.52868 139.038 5.72038 139.72 6.10376C140.416 6.48715 140.934 7.05513 141.275 7.8077C141.616 8.56028 141.786 9.49034 141.786 10.5979L141.722 16.4339H139.486ZM136.461 16.6895C135.183 16.6895 134.189 16.4055 133.479 15.8375C132.783 15.2695 132.436 14.4673 132.436 13.4307C132.436 12.3231 132.805 11.4783 133.543 10.8961C134.296 10.3139 135.339 10.0228 136.674 10.0228H139.528V11.8546H137.441C136.49 11.8546 135.822 11.9895 135.439 12.2592C135.055 12.5148 134.864 12.884 134.864 13.3668C134.864 13.7786 135.027 14.1052 135.354 14.3466C135.694 14.5738 136.163 14.6874 136.759 14.6874C137.285 14.6874 137.739 14.5667 138.122 14.3253C138.52 14.0697 138.825 13.7431 139.038 13.3455C139.266 12.9337 139.379 12.4935 139.379 12.025H140.252C140.252 13.4733 139.94 14.6164 139.315 15.4541C138.705 16.2777 137.753 16.6895 136.461 16.6895Z" fill="#1F1F1F"/>
<path d="M144.202 16.4339V1.52442H146.587V16.4339H144.202Z" fill="#1F1F1F"/>
</g>
</svg>
