<svg width="16" height="17" viewBox="0 0 16 17" fill="none" xmlns="http://www.w3.org/2000/svg">
<g id="Bold / Essentional, UI / Check Circle">
<path id="Vector" fill-rule="evenodd" clip-rule="evenodd" d="M14.6663 8.50004C14.6663 12.1819 11.6816 15.1667 7.99967 15.1667C4.31778 15.1667 1.33301 12.1819 1.33301 8.50004C1.33301 4.81814 4.31778 1.83337 7.99967 1.83337C11.6816 1.83337 14.6663 4.81814 14.6663 8.50004ZM10.6866 6.47982C10.8818 6.67508 10.8818 6.99166 10.6866 7.18693L7.35323 10.5203C7.15797 10.7155 6.84138 10.7155 6.64612 10.5203L5.31279 9.18693C5.11753 8.99166 5.11753 8.67508 5.31279 8.47982C5.50805 8.28456 5.82463 8.28456 6.01989 8.47982L6.99967 9.4596L8.48956 7.96971L9.97945 6.47982C10.1747 6.28456 10.4913 6.28456 10.6866 6.47982Z" fill="#0EBC73"/>
</g>
</svg>
