<svg width="16" height="16" viewBox="0 0 16 16" fill="none" xmlns="http://www.w3.org/2000/svg">
<g id="Outline / Essentional, UI / Close Circle" clip-path="url(#clip0_13_32130)">
<g id="Vector">
<path d="M6.68654 5.97981C6.49128 5.78455 6.1747 5.78455 5.97943 5.97981C5.78417 6.17507 5.78417 6.49165 5.97943 6.68692L7.29255 8.00004L5.97945 9.31314C5.78419 9.50841 5.78419 9.82499 5.97945 10.0203C6.17471 10.2155 6.49129 10.2155 6.68655 10.0203L7.99966 8.70714L9.31275 10.0202C9.50802 10.2155 9.8246 10.2155 10.0199 10.0202C10.2151 9.82498 10.2151 9.50839 10.0199 9.31313L8.70677 8.00004L10.0199 6.68693C10.2151 6.49167 10.2151 6.17509 10.0199 5.97982C9.82461 5.78456 9.50803 5.78456 9.31277 5.97982L7.99966 7.29293L6.68654 5.97981Z" fill="#D92C21"/>
<path fill-rule="evenodd" clip-rule="evenodd" d="M7.99967 0.833374C4.04163 0.833374 0.833008 4.042 0.833008 8.00004C0.833008 11.9581 4.04163 15.1667 7.99967 15.1667C11.9577 15.1667 15.1663 11.9581 15.1663 8.00004C15.1663 4.042 11.9577 0.833374 7.99967 0.833374ZM1.83301 8.00004C1.83301 4.59428 4.59392 1.83337 7.99967 1.83337C11.4054 1.83337 14.1663 4.59428 14.1663 8.00004C14.1663 11.4058 11.4054 14.1667 7.99967 14.1667C4.59392 14.1667 1.83301 11.4058 1.83301 8.00004Z" fill="#D92C21"/>
</g>
</g>
<defs>
<clipPath id="clip0_13_32130">
<rect width="16" height="16" fill="white"/>
</clipPath>
</defs>
</svg>
