<svg width="20" height="20" viewBox="0 0 20 20" fill="none" xmlns="http://www.w3.org/2000/svg">
<g id="Outline / Money / Card Send">
<path id="Vector (Stroke)" fill-rule="evenodd" clip-rule="evenodd" d="M8.2864 2.70837H11.7138C13.2452 2.70836 14.4583 2.70835 15.4076 2.83599C16.3846 2.96734 17.1754 3.24411 17.799 3.86774C18.4227 4.49138 18.6994 5.28217 18.8308 6.25919C18.9062 6.81991 18.937 7.47262 18.9497 8.2286C18.9554 8.26267 18.9584 8.29767 18.9584 8.33337C18.9584 8.36275 18.9564 8.39166 18.9525 8.41995C18.9584 8.89139 18.9584 9.40157 18.9584 9.95303V10C18.9584 10.3452 18.6786 10.625 18.3334 10.625C17.9882 10.625 17.7084 10.3452 17.7084 10C17.7084 9.62846 17.7083 9.28203 17.7068 8.95837H2.2934C2.29182 9.28203 2.29175 9.62846 2.29175 10C2.29175 11.5891 2.29308 12.7179 2.40821 13.5743C2.52094 14.4127 2.73233 14.8958 3.085 15.2485C3.43768 15.6011 3.92071 15.8125 4.75912 15.9252C5.61551 16.0404 6.7444 16.0417 8.33341 16.0417H11.6667C12.0119 16.0417 12.2917 16.3215 12.2917 16.6667C12.2917 17.0119 12.0119 17.2917 11.6667 17.2917H8.28641C6.75494 17.2917 5.54191 17.2917 4.59256 17.1641C3.61554 17.0327 2.82475 16.756 2.20112 16.1323C1.57748 15.5087 1.30072 14.7179 1.16936 13.7409C1.04172 12.7915 1.04174 11.5785 1.04175 10.0471V9.95303C1.04174 9.40156 1.04174 8.89138 1.04769 8.41994C1.04377 8.39165 1.04175 8.36275 1.04175 8.33337C1.04175 8.29768 1.04474 8.26268 1.05049 8.22862C1.06312 7.47263 1.09397 6.81992 1.16936 6.25919C1.30072 5.28217 1.57748 4.49138 2.20112 3.86774C2.82475 3.24411 3.61554 2.96734 4.59256 2.83599C5.54191 2.70835 6.75493 2.70836 8.2864 2.70837ZM2.31348 7.70837H17.6867C17.6704 7.21943 17.6419 6.79699 17.5919 6.42575C17.4792 5.58734 17.2678 5.1043 16.9152 4.75163C16.5625 4.39895 16.0794 4.18756 15.241 4.07484C14.3847 3.9597 13.2558 3.95837 11.6667 3.95837H8.33342C6.7444 3.95837 5.61551 3.9597 4.75912 4.07484C3.92071 4.18756 3.43768 4.39895 3.085 4.75163C2.73233 5.1043 2.52094 5.58734 2.40821 6.42575C2.3583 6.79699 2.32978 7.21943 2.31348 7.70837ZM15.3915 11.2248C15.6356 10.9807 16.0313 10.9807 16.2754 11.2248L17.942 12.8914C18.1861 13.1355 18.1861 13.5312 17.942 13.7753C17.6979 14.0194 17.3022 14.0194 17.0581 13.7753L16.4584 13.1756V16.6667C16.4584 17.0119 16.1786 17.2917 15.8334 17.2917C15.4882 17.2917 15.2084 17.0119 15.2084 16.6667V13.1756L14.6087 13.7753C14.3646 14.0194 13.9689 14.0194 13.7248 13.7753C13.4807 13.5312 13.4807 13.1355 13.7248 12.8914L15.3915 11.2248ZM4.37508 13.3334C4.37508 12.9882 4.6549 12.7084 5.00008 12.7084H8.33342C8.67859 12.7084 8.95842 12.9882 8.95842 13.3334C8.95842 13.6786 8.67859 13.9584 8.33342 13.9584H5.00008C4.6549 13.9584 4.37508 13.6786 4.37508 13.3334ZM9.79175 13.3334C9.79175 12.9882 10.0716 12.7084 10.4167 12.7084H10.8334C11.1786 12.7084 11.4584 12.9882 11.4584 13.3334C11.4584 13.6786 11.1786 13.9584 10.8334 13.9584H10.4167C10.0716 13.9584 9.79175 13.6786 9.79175 13.3334Z" fill="#4D40E4"/>
</g>
</svg>
