<svg width="24" height="25" viewBox="0 0 24 25" fill="none" xmlns="http://www.w3.org/2000/svg">
<g id="bar-chart-square-02">
<path id="Icon" d="M8 15.9413V17.9413M12 11.9413V17.9413M16 7.94128V17.9413M7.8 21.9413H16.2C17.8802 21.9413 18.7202 21.9413 19.362 21.6143C19.9265 21.3267 20.3854 20.8677 20.673 20.3033C21 19.6615 21 18.8214 21 17.1413V8.74128C21 7.06113 21 6.22105 20.673 5.57931C20.3854 5.01483 19.9265 4.55588 19.362 4.26826C18.7202 3.94128 17.8802 3.94128 16.2 3.94128H7.8C6.11984 3.94128 5.27976 3.94128 4.63803 4.26826C4.07354 4.55588 3.6146 5.01483 3.32698 5.57931C3 6.22105 3 7.06113 3 8.74128V17.1413C3 18.8214 3 19.6615 3.32698 20.3033C3.6146 20.8677 4.07354 21.3267 4.63803 21.6143C5.27976 21.9413 6.11984 21.9413 7.8 21.9413Z" stroke="#FFA058" stroke-width="2" stroke-linecap="round" stroke-linejoin="round"/>
</g>
</svg>
