<svg width="16" height="16" viewBox="0 0 16 16" fill="none" xmlns="http://www.w3.org/2000/svg">
<g id="Outline / Video, Audio, Sound / Stream">
<path id="Vector" fill-rule="evenodd" clip-rule="evenodd" d="M6.3004 2.16663H6.36562C7.43379 2.16662 8.28003 2.16661 8.94951 2.24575C9.63682 2.32699 10.2026 2.49755 10.6753 2.88543C10.8356 3.01701 10.9826 3.16404 11.1142 3.32438C11.5021 3.79701 11.6726 4.36281 11.7539 5.05013C11.7722 5.20461 11.7862 5.36852 11.797 5.54238C12.321 5.28124 12.765 5.06666 13.1351 4.94556C13.5694 4.80346 14.0301 4.74611 14.4549 5.00868C14.8798 5.27126 15.0345 5.70894 15.1016 6.16094C15.1664 6.59701 15.1664 7.17144 15.1663 7.86158V8.13834C15.1664 8.82848 15.1664 9.40291 15.1016 9.83898C15.0345 10.291 14.8798 10.7287 14.4549 10.9912C14.0301 11.2538 13.5694 11.1965 13.1351 11.0544C12.765 10.9333 12.321 10.7187 11.797 10.4575C11.7862 10.6314 11.7722 10.7953 11.7539 10.9498C11.6726 11.6371 11.5021 12.2029 11.1142 12.6755C10.9826 12.8359 10.8356 12.9829 10.6753 13.1145C10.2026 13.5024 9.63682 13.6729 8.94951 13.7542C8.28004 13.8333 7.4338 13.8333 6.36564 13.8333H6.30038C5.23221 13.8333 4.38598 13.8333 3.71651 13.7542C3.02919 13.6729 2.46339 13.5024 1.99076 13.1145C1.83042 12.9829 1.6834 12.8359 1.55181 12.6755C1.16393 12.2029 0.993371 11.6371 0.912128 10.9498C0.832993 10.2803 0.833 9.43408 0.833008 8.3659V7.63402C0.833 6.56584 0.832993 5.7196 0.912128 5.05013C0.993371 4.36281 1.16393 3.79701 1.55181 3.32438C1.6834 3.16404 1.83042 3.01702 1.99076 2.88543C2.46339 2.49755 3.02919 2.32699 3.71651 2.24575C4.38599 2.16661 5.23222 2.16662 6.3004 2.16663ZM10.833 8.33329V7.66663C10.833 6.55855 10.8322 5.77145 10.7608 5.16751C10.6907 4.57461 10.5586 4.22371 10.3412 3.95877C10.2512 3.84907 10.1506 3.74847 10.0409 3.65844C9.77592 3.44101 9.42503 3.30892 8.83212 3.23883C8.22818 3.16744 7.44108 3.16663 6.33301 3.16663C5.22493 3.16663 4.43784 3.16744 3.83389 3.23883C3.24099 3.30892 2.89009 3.44101 2.62516 3.65844C2.51545 3.74847 2.41485 3.84907 2.32482 3.95877C2.10739 4.22371 1.9753 4.57461 1.90521 5.16751C1.83383 5.77145 1.83301 6.55855 1.83301 7.66663V8.33329C1.83301 9.44137 1.83383 10.2285 1.90521 10.8324C1.9753 11.4253 2.10739 11.7762 2.32482 12.0411C2.41485 12.1509 2.51545 12.2514 2.62516 12.3415C2.89009 12.5589 3.24099 12.691 3.83389 12.7611C4.43784 12.8325 5.22493 12.8333 6.33301 12.8333C7.44108 12.8333 8.22818 12.8325 8.83212 12.7611C9.42503 12.691 9.77592 12.5589 10.0409 12.3415C10.1506 12.2514 10.2512 12.1509 10.3412 12.0411C10.5586 11.7762 10.6907 11.4253 10.7608 10.8324C10.8322 10.2285 10.833 9.44137 10.833 8.33329ZM11.833 9.35761L11.9955 9.43887C12.6591 9.77066 13.1062 9.99272 13.4461 10.1039C13.779 10.2129 13.8798 10.1711 13.9292 10.1406C13.9786 10.11 14.061 10.0386 14.1125 9.6921C14.165 9.33834 14.1663 8.83915 14.1663 8.09722V7.90269C14.1663 7.16077 14.165 6.66158 14.1125 6.30782C14.061 5.96135 13.9786 5.88987 13.9292 5.85933C13.8798 5.8288 13.779 5.78705 13.4461 5.89598C13.1062 6.0072 12.6591 6.22926 11.9955 6.56105L11.833 6.64231V7.57762C11.833 7.59635 11.833 7.61515 11.833 7.63402V8.3659C11.833 8.38477 11.833 8.40357 11.833 8.4223V9.35761ZM6.33301 5.16663C6.4814 5.16663 6.62212 5.23254 6.71712 5.34653L8.38379 7.34653C8.56057 7.55867 8.53191 7.87396 8.31977 8.05074C8.10763 8.22752 7.79235 8.19886 7.61556 7.98672L6.83301 7.04765V10.3333C6.83301 10.6094 6.60915 10.8333 6.33301 10.8333C6.05687 10.8333 5.83301 10.6094 5.83301 10.3333V7.04765L5.05045 7.98672C4.87367 8.19886 4.55839 8.22752 4.34625 8.05074C4.13411 7.87396 4.10545 7.55867 4.28223 7.34653L5.9489 5.34653C6.04389 5.23254 6.18462 5.16663 6.33301 5.16663Z" fill="#383FE1"/>
</g>
</svg>
