<svg width="16" height="16" viewBox="0 0 16 16" fill="none" xmlns="http://www.w3.org/2000/svg">
<g id="Outline / Essentional, UI / Gift" clip-path="url(#clip0_13_32000)">
<path id="Vector" fill-rule="evenodd" clip-rule="evenodd" d="M7.96142 0.833374C6.4225 0.833366 5.21647 0.833359 4.27548 0.959872C3.31232 1.08937 2.55231 1.35959 1.95577 1.95613C1.35923 2.55267 1.089 3.31269 0.959506 4.27584C0.832993 5.21683 0.833 6.42285 0.833008 7.96178V8.03829C0.833 9.57722 0.832993 10.7832 0.959506 11.7242C1.089 12.6874 1.35923 13.4474 1.95577 14.044C2.55231 14.6405 3.31232 14.9107 4.27548 15.0402C5.21647 15.1667 6.4225 15.1667 7.96143 15.1667H8.03792C9.57685 15.1667 10.7829 15.1667 11.7239 15.0402C12.687 14.9107 13.447 14.6405 14.0436 14.044C14.6401 13.4474 14.9104 12.6874 15.0398 11.7242C15.1664 10.7832 15.1664 9.57722 15.1663 8.03829V7.96179C15.1664 6.42286 15.1664 5.21684 15.0398 4.27584C14.9104 3.31269 14.6401 2.55267 14.0436 1.95613C13.447 1.35959 12.687 1.08937 11.7239 0.959872C10.7829 0.833359 9.57686 0.833366 8.03794 0.833374H7.96142ZM7.49967 1.83356C6.17053 1.83496 5.18145 1.84707 4.40873 1.95095C3.55646 2.06554 3.04264 2.28347 2.66287 2.66324C2.2831 3.04301 2.06517 3.55682 1.95059 4.40909C1.8467 5.18181 1.83459 6.1709 1.83319 7.50004H4.60885C4.37487 7.20778 4.20004 6.86304 4.10471 6.48172C3.74588 5.04638 5.04602 3.74624 6.48136 4.10508C6.86268 4.20041 7.20741 4.37523 7.49967 4.60921V1.83356ZM1.83319 8.50004C1.83459 9.82918 1.8467 10.8183 1.95059 11.591C2.06517 12.4433 2.2831 12.9571 2.66287 13.3368C3.04264 13.7166 3.55646 13.9345 4.40873 14.0491C5.18145 14.153 6.17053 14.1651 7.49967 14.1665V9.41581C6.97991 10.454 5.90636 11.1667 4.66634 11.1667C4.3902 11.1667 4.16634 10.9429 4.16634 10.6667C4.16634 10.3906 4.3902 10.1667 4.66634 10.1667C5.69087 10.1667 6.5493 9.45561 6.77503 8.50005H6.68973L6.6836 8.50004H1.83319ZM8.49967 14.1665C9.82882 14.1651 10.8179 14.153 11.5906 14.0491C12.4429 13.9345 12.9567 13.7166 13.3365 13.3368C13.7162 12.9571 13.9342 12.4433 14.0488 11.591C14.1527 10.8183 14.1648 9.82918 14.1662 8.50004H9.31576L9.30962 8.50005H9.22432C9.45004 9.45561 10.3085 10.1667 11.333 10.1667C11.6091 10.1667 11.833 10.3906 11.833 10.6667C11.833 10.9429 11.6091 11.1667 11.333 11.1667C10.093 11.1667 9.01943 10.454 8.49967 9.41581V14.1665ZM14.1662 7.50004H11.3905C11.6245 7.20778 11.7993 6.86304 11.8946 6.48172C12.2535 5.04638 10.9533 3.74624 9.518 4.10508C9.13667 4.20041 8.79194 4.37524 8.49967 4.60922V1.83356C9.82882 1.83496 10.8179 1.84707 11.5906 1.95095C12.4429 2.06554 12.9567 2.28347 13.3365 2.66324C13.7162 3.04301 13.9342 3.55682 14.0488 4.40909C14.1527 5.18181 14.1648 6.1709 14.1662 7.50004ZM8.49968 7.50004L8.49968 6.68612C8.50148 5.92397 9.0208 5.26015 9.76053 5.07522C10.4635 4.89948 11.1002 5.53623 10.9245 6.23919C10.7396 6.97863 10.0763 7.49784 9.31447 7.50004H8.49968ZM7.49967 6.68503C7.49738 5.92334 6.9782 5.26007 6.23882 5.07522C5.53586 4.89948 4.89911 5.53623 5.07486 6.23919C5.25972 6.97863 5.92309 7.49784 6.68488 7.50004H7.49967V6.68503Z" fill="white"/>
</g>
<defs>
<clipPath id="clip0_13_32000">
<rect width="16" height="16" fill="white"/>
</clipPath>
</defs>
</svg>
