<svg width="24" height="25" viewBox="0 0 24 25" fill="none" xmlns="http://www.w3.org/2000/svg">
<g id="home-line">
<path id="Icon" d="M8 17.9413H16M11.0177 3.70528L4.23539 8.98041C3.78202 9.33303 3.55534 9.50934 3.39203 9.73014C3.24737 9.92573 3.1396 10.1461 3.07403 10.3803C3 10.6448 3 10.932 3 11.5063V18.7413C3 19.8614 3 20.4214 3.21799 20.8492C3.40973 21.2256 3.71569 21.5315 4.09202 21.7233C4.51984 21.9413 5.07989 21.9413 6.2 21.9413H17.8C18.9201 21.9413 19.4802 21.9413 19.908 21.7233C20.2843 21.5315 20.5903 21.2256 20.782 20.8492C21 20.4214 21 19.8614 21 18.7413V11.5063C21 10.932 21 10.6448 20.926 10.3803C20.8604 10.1461 20.7526 9.92573 20.608 9.73014C20.4447 9.50934 20.218 9.33303 19.7646 8.98041L12.9823 3.70528C12.631 3.43203 12.4553 3.2954 12.2613 3.24288C12.0902 3.19654 11.9098 3.19654 11.7387 3.24288C11.5447 3.2954 11.369 3.43203 11.0177 3.70528Z" stroke="#666666" stroke-width="2" stroke-linecap="round" stroke-linejoin="round"/>
</g>
</svg>
