<svg width="16" height="17" viewBox="0 0 16 17" fill="none" xmlns="http://www.w3.org/2000/svg">
<g id="Outline / Video, Audio, Sound / Clapperboard Play">
<path id="Vector" fill-rule="evenodd" clip-rule="evenodd" d="M7.96179 1.3335H8.03829C9.57722 1.33349 10.7832 1.33348 11.7242 1.45999C12.6874 1.58949 13.4474 1.85971 14.044 2.45625C14.6405 3.05279 14.9107 3.81281 15.0402 4.77597C15.1667 5.71696 15.1667 6.92298 15.1667 8.46191V8.53841C15.1667 10.0773 15.1667 11.2834 15.0402 12.2244C14.9107 13.1875 14.6405 13.9475 14.044 14.5441C13.4474 15.1406 12.6874 15.4108 11.7242 15.5403C10.7832 15.6668 9.57722 15.6668 8.03829 15.6668H7.96179C6.42286 15.6668 5.21684 15.6668 4.27584 15.5403C3.31269 15.4108 2.55267 15.1406 1.95613 14.5441C1.35959 13.9475 1.08936 13.1875 0.959872 12.2244C0.833359 11.2834 0.833366 10.0773 0.833374 8.53841V8.46191C0.833366 6.92298 0.833359 5.71696 0.959872 4.77597C1.08936 3.81281 1.35959 3.05279 1.95613 2.45625C2.55267 1.85971 3.31269 1.58949 4.27584 1.45999C5.21684 1.33348 6.42286 1.33349 7.96179 1.3335ZM4.40909 2.45108C3.55682 2.56566 3.04301 2.78359 2.66324 3.16336C2.28347 3.54313 2.06554 4.05695 1.95095 4.90921C1.93285 5.04385 1.91754 5.18506 1.90458 5.3335H4.39223L6.2963 2.34139C5.54465 2.35293 4.92807 2.3813 4.40909 2.45108ZM7.47148 2.33371C7.45909 2.36862 7.4426 2.40269 7.42187 2.43527L5.57754 5.3335H8.72557L10.6126 2.3681C9.90383 2.33396 9.04985 2.3335 8.00004 2.3335C7.81806 2.3335 7.64196 2.33351 7.47148 2.33371ZM11.7322 2.47149L9.91088 5.3335H14.0955C14.0825 5.18506 14.0672 5.04385 14.0491 4.90921C13.9345 4.05695 13.7166 3.54313 13.3368 3.16336C12.9785 2.80503 12.5009 2.59079 11.7322 2.47149ZM14.1489 6.3335H9.00752C9.00222 6.33358 8.99692 6.33358 8.99162 6.3335H4.67419C4.66889 6.33358 4.66359 6.33358 4.65829 6.3335H1.85119C1.83367 6.94798 1.83337 7.6616 1.83337 8.50016C1.83337 10.0856 1.83444 11.2245 1.95095 12.0911C2.06554 12.9434 2.28347 13.4572 2.66324 13.837C3.04301 14.2167 3.55682 14.4347 4.40909 14.5492C5.27574 14.6658 6.41456 14.6668 8.00004 14.6668C9.58552 14.6668 10.7243 14.6658 11.591 14.5492C12.4433 14.4347 12.9571 14.2167 13.3368 13.837C13.7166 13.4572 13.9345 12.9434 14.0491 12.0911C14.1656 11.2245 14.1667 10.0856 14.1667 8.50016C14.1667 7.6616 14.1664 6.94798 14.1489 6.3335ZM8.91221 8.44765L8.97996 8.49136C9.39316 8.75793 9.75092 8.98873 10.0003 9.20926C10.2656 9.44388 10.5 9.74592 10.5 10.1668C10.5 10.5877 10.2656 10.8898 10.0003 11.1244C9.75092 11.3449 9.39316 11.5757 8.97997 11.8423L8.91221 11.886C8.49477 12.1554 8.13199 12.3895 7.83064 12.5233C7.51709 12.6625 7.11535 12.7628 6.73219 12.5194C6.36908 12.2887 6.25898 11.895 6.21279 11.5483C6.16666 11.2022 6.16668 10.7451 6.16671 10.2035V10.1302C6.16668 9.58859 6.16666 9.13147 6.21279 8.78534C6.25898 8.43867 6.36908 8.04494 6.73219 7.81425C7.11535 7.57083 7.51709 7.67113 7.83064 7.81035C8.13199 7.94415 8.49477 8.17827 8.91221 8.44765ZM7.23865 8.66796C7.23825 8.66742 7.24136 8.66659 7.24921 8.66707C7.24298 8.66873 7.23906 8.66849 7.23865 8.66796ZM7.26478 8.66899C7.29155 8.67355 7.3413 8.68722 7.42483 8.72431C7.64589 8.82246 7.94233 9.01196 8.40494 9.31044C8.86053 9.6044 9.15239 9.79437 9.33779 9.95833C9.50849 10.1093 9.5007 10.1623 9.50007 10.1666C9.5007 10.1709 9.50849 10.2244 9.33779 10.3753C9.15239 10.5393 8.86053 10.7293 8.40493 11.0232C7.94233 11.3217 7.64589 11.5112 7.42483 11.6094C7.34129 11.6464 7.29155 11.6601 7.26477 11.6647C7.24997 11.6362 7.22415 11.5672 7.20403 11.4162C7.16779 11.1443 7.16671 10.7549 7.16671 10.1668C7.16671 9.57873 7.16779 9.18937 7.20403 8.91743C7.22415 8.76644 7.24997 8.6975 7.26478 8.66899ZM7.23865 11.6657C7.23906 11.6652 7.24298 11.6649 7.24921 11.6666C7.24135 11.6671 7.23824 11.6662 7.23865 11.6657ZM7.27342 11.679C7.27571 11.6809 7.27671 11.6822 7.27663 11.6824C7.27656 11.6826 7.27542 11.6816 7.27342 11.679ZM7.27342 8.6547C7.27542 8.65205 7.27656 8.65109 7.27663 8.65127C7.27671 8.65146 7.27571 8.65278 7.27342 8.6547Z" fill="#4D40E4"/>
</g>
</svg>
