<svg width="20" height="20" viewBox="0 0 20 20" fill="none" xmlns="http://www.w3.org/2000/svg">
<g id="Outline / Money / Wad Of Money">
<path id="Vector (Stroke)" fill-rule="evenodd" clip-rule="evenodd" d="M13.1251 4.79212V6.93747C14.5515 7.22702 15.6251 8.48811 15.6251 9.99996C15.6251 11.5118 14.5515 12.7729 13.1251 13.0624V15.2078C13.9892 15.2058 14.645 15.1952 15.1753 15.1413C15.8162 15.0761 16.2042 14.9527 16.5048 14.7519C16.8005 14.5543 17.0544 14.3004 17.252 14.0046C17.4528 13.7041 17.5762 13.316 17.6414 12.6752C17.7077 12.0239 17.7084 11.1834 17.7084 9.99996C17.7084 8.81657 17.7077 7.97607 17.6414 7.32475C17.5762 6.68389 17.4528 6.29585 17.252 5.99529C17.0544 5.69957 16.8005 5.44566 16.5048 5.24806C16.2042 5.04723 15.8162 4.92383 15.1753 4.85864C14.645 4.80469 13.9892 4.79417 13.1251 4.79212ZM11.8751 15.2083L11.8751 4.79163L8.12508 4.79163V15.2083H11.8751ZM6.87508 15.2078V13.0624C5.44868 12.7729 4.37508 11.5118 4.37508 9.99996C4.37508 8.48811 5.44868 7.22702 6.87508 6.93747V4.79212C6.01094 4.79417 5.35519 4.80469 4.82487 4.85864C4.18401 4.92383 3.79597 5.04723 3.49541 5.24806C3.19969 5.44566 2.94578 5.69957 2.74818 5.99529C2.54736 6.29585 2.42395 6.68389 2.35876 7.32475C2.2925 7.97607 2.29175 8.81657 2.29175 9.99996C2.29175 11.1834 2.2925 12.0239 2.35876 12.6752C2.42395 13.316 2.54736 13.7041 2.74819 14.0046C2.94578 14.3004 3.19969 14.5543 3.49541 14.7519C3.79597 14.9527 4.18401 15.0761 4.82488 15.1413C5.35519 15.1952 6.01094 15.2058 6.87508 15.2078ZM6.87508 8.23165C6.14684 8.48905 5.62508 9.18357 5.62508 9.99996C5.62508 10.8163 6.14684 11.5109 6.87508 11.7683L6.87508 8.23165ZM13.1251 11.7683C13.8533 11.5109 14.3751 10.8163 14.3751 9.99996C14.3751 9.18357 13.8533 8.48905 13.1251 8.23165L13.1251 11.7683ZM15.3018 3.61506C16.0415 3.6903 16.659 3.84779 17.1992 4.20873C17.6314 4.49752 18.0025 4.86862 18.2913 5.30083C18.6523 5.84101 18.8097 6.45854 18.885 7.19825C18.9584 7.92022 18.9584 8.82431 18.9584 9.96533V10.0346C18.9584 11.1756 18.9584 12.0797 18.885 12.8017C18.8097 13.5414 18.6523 14.1589 18.2913 14.6991C18.0025 15.1313 17.6314 15.5024 17.1992 15.7912C16.659 16.1521 16.0415 16.3096 15.3018 16.3849C14.5798 16.4583 13.6758 16.4583 12.5347 16.4583H7.46542C6.32441 16.4583 5.42033 16.4583 4.69837 16.3849C3.95867 16.3096 3.34113 16.1521 2.80095 15.7912C2.36874 15.5024 1.99764 15.1313 1.70885 14.6991C1.34791 14.1589 1.19043 13.5414 1.11518 12.8017C1.04173 12.0797 1.04174 11.1756 1.04175 10.0346V9.9653C1.04174 8.8243 1.04173 7.92021 1.11518 7.19825C1.19043 6.45854 1.34791 5.84101 1.70885 5.30083C1.99764 4.86862 2.36874 4.49752 2.80095 4.20873C3.34113 3.84779 3.95866 3.6903 4.69837 3.61506C5.42033 3.54161 6.32442 3.54162 7.46543 3.54163L12.5347 3.54163C13.6757 3.54162 14.5798 3.54161 15.3018 3.61506Z" fill="#4D40E4"/>
</g>
</svg>
