<svg width="24" height="25" viewBox="0 0 24 25" fill="none" xmlns="http://www.w3.org/2000/svg">
<g id="Outline / Video, Audio, Sound / Play Circle">
<g id="Union">
<path fill-rule="evenodd" clip-rule="evenodd" d="M11.0748 8.00835C9.74622 7.22395 8.25 8.29065 8.25 9.71316V15.2868C8.25 16.7093 9.74622 17.776 11.0748 16.9916L15.795 14.2048C17.0683 13.453 17.0683 11.547 15.795 10.7952L11.0748 8.00835ZM9.75 9.71316C9.75 9.51468 9.84615 9.37585 9.95947 9.30498C10.0691 9.23641 10.1919 9.22898 10.3122 9.30003L15.0324 12.0869C15.165 12.1652 15.25 12.3148 15.25 12.5C15.25 12.6852 15.165 12.8348 15.0324 12.9131L10.3122 15.7C10.1919 15.771 10.0691 15.7636 9.95947 15.695C9.84615 15.6242 9.75 15.4853 9.75 15.2868V9.71316Z" fill="#4D40E4"/>
<path fill-rule="evenodd" clip-rule="evenodd" d="M12 1.75C6.06294 1.75 1.25 6.56294 1.25 12.5C1.25 18.4371 6.06294 23.25 12 23.25C17.9371 23.25 22.75 18.4371 22.75 12.5C22.75 6.56294 17.9371 1.75 12 1.75ZM2.75 12.5C2.75 7.39137 6.89137 3.25 12 3.25C17.1086 3.25 21.25 7.39137 21.25 12.5C21.25 17.6086 17.1086 21.75 12 21.75C6.89137 21.75 2.75 17.6086 2.75 12.5Z" fill="#4D40E4"/>
</g>
</g>
</svg>
