<svg width="24" height="25" viewBox="0 0 24 25" fill="none" xmlns="http://www.w3.org/2000/svg">
<g id="layers-three-01">
<path id="Icon" d="M2 12.9413L11.6422 17.7624C11.7734 17.828 11.839 17.8608 11.9078 17.8737C11.9687 17.8851 12.0313 17.8851 12.0922 17.8737C12.161 17.8608 12.2266 17.828 12.3578 17.7624L22 12.9413M2 17.9413L11.6422 22.7624C11.7734 22.828 11.839 22.8608 11.9078 22.8737C11.9687 22.8851 12.0313 22.8851 12.0922 22.8737C12.161 22.8608 12.2266 22.828 12.3578 22.7624L22 17.9413M2 7.94129L11.6422 3.12017C11.7734 3.05458 11.839 3.02179 11.9078 3.00888C11.9687 2.99745 12.0313 2.99745 12.0922 3.00888C12.161 3.02179 12.2266 3.05458 12.3578 3.12017L22 7.94129L12.3578 12.7624C12.2266 12.828 12.161 12.8608 12.0922 12.8737C12.0313 12.8851 11.9687 12.8851 11.9078 12.8737C11.839 12.8608 11.7734 12.828 11.6422 12.7624L2 7.94129Z" stroke="#666666" stroke-width="2" stroke-linecap="round" stroke-linejoin="round"/>
</g>
</svg>
