<svg width="16" height="16" viewBox="0 0 16 16" fill="none" xmlns="http://www.w3.org/2000/svg">
<g clip-path="url(#clip0_19_33542)">
<path fill-rule="evenodd" clip-rule="evenodd" d="M7.96173 0.833496H8.03823C9.57716 0.833488 10.7832 0.833481 11.7242 0.959994C12.6873 1.08949 13.4473 1.35971 14.0439 1.95625C14.6404 2.55279 14.9107 3.31281 15.0401 4.27597C15.1667 5.21696 15.1667 6.42298 15.1666 7.96191V8.00016H15.1594C15.1666 8.38607 15.1666 8.82012 15.1666 9.31111V9.35588C15.1666 10.2704 15.1667 10.9873 15.1196 11.5635C15.0716 12.1503 14.9724 12.635 14.7488 13.0738C14.3813 13.7951 13.7949 14.3815 13.0736 14.749C12.6349 14.9726 12.1501 15.0718 11.5634 15.1198C10.9871 15.1668 10.2702 15.1668 9.3557 15.1668H6.64426C5.72979 15.1668 5.01283 15.1668 4.4366 15.1198C3.84984 15.0718 3.3651 14.9726 2.92635 14.749C2.20506 14.3815 1.61864 13.7951 1.25112 13.0738C1.02757 12.635 0.928328 12.1503 0.880388 11.5635C0.833308 10.9873 0.83331 10.2703 0.833313 9.35587V9.31112C0.833312 8.82013 0.83331 8.38607 0.840596 8.00016H0.833313L0.833313 7.96191C0.833305 6.42298 0.833298 5.21696 0.959811 4.27597C1.0893 3.31281 1.35953 2.55279 1.95607 1.95625C2.55261 1.35971 3.31263 1.08949 4.27578 0.959994C5.21677 0.833481 6.4228 0.833488 7.96173 0.833496ZM1.9213 4.65815C2.21185 4.35999 2.55082 4.10931 2.92635 3.91797C3.3651 3.69442 3.84984 3.59518 4.4366 3.54724C5.01284 3.50016 5.7298 3.50016 6.64428 3.50016H9.35568C10.2702 3.50016 10.9871 3.50016 11.5634 3.54724C12.1501 3.59518 12.6349 3.69442 13.0736 3.91797C13.4491 4.10931 13.7881 4.36 14.0787 4.65815C14.0697 4.57273 14.0599 4.48979 14.0491 4.40921C13.9345 3.55695 13.7166 3.04313 13.3368 2.66336C12.957 2.28359 12.4432 2.06566 11.5909 1.95108C10.7243 1.83456 9.58546 1.8335 7.99998 1.8335C6.4145 1.8335 5.27568 1.83456 4.40903 1.95108C3.55676 2.06566 3.04295 2.28359 2.66318 2.66336C2.28341 3.04313 2.06548 3.55695 1.95089 4.40921C1.94006 4.48979 1.93022 4.57272 1.9213 4.65815ZM4.51804 4.54392C3.99312 4.5868 3.65463 4.66922 3.38034 4.80898C2.84721 5.08062 2.41377 5.51406 2.14213 6.04719C2.00237 6.32148 1.91995 6.65997 1.87707 7.18488C1.8337 7.71564 1.83331 8.39182 1.83331 9.3335C1.83331 10.2752 1.8337 10.9513 1.87707 11.4821C1.91995 12.007 2.00237 12.3455 2.14213 12.6198C2.41377 13.1529 2.84721 13.5864 3.38034 13.858C3.65463 13.9978 3.99312 14.0802 4.51804 14.1231C5.04879 14.1664 5.72498 14.1668 6.66665 14.1668H9.33331C10.275 14.1668 10.9512 14.1664 11.4819 14.1231C12.0068 14.0802 12.3453 13.9978 12.6196 13.858C13.1527 13.5864 13.5862 13.1529 13.8578 12.6198C13.9976 12.3455 14.08 12.007 14.1229 11.4821C14.1663 10.9513 14.1666 10.2752 14.1666 9.3335C14.1666 8.39182 14.1663 7.71564 14.1229 7.18488C14.08 6.65997 13.9976 6.32148 13.8578 6.04719C13.5862 5.51406 13.1527 5.08062 12.6196 4.80898C12.3453 4.66922 12.0068 4.5868 11.4819 4.54392C10.9512 4.50055 10.275 4.50016 9.33331 4.50016H6.66665C5.72497 4.50016 5.04879 4.50055 4.51804 4.54392ZM9.99965 7.62719C10.2056 7.81111 10.2235 8.12719 10.0396 8.33317L7.65866 10.9998C7.5638 11.1061 7.42813 11.1668 7.28569 11.1668C7.14326 11.1668 7.00759 11.1061 6.91272 10.9998L5.96034 9.93317C5.77643 9.72719 5.79432 9.41111 6.00031 9.22719C6.20629 9.04328 6.52237 9.06117 6.70628 9.26715L7.28569 9.9161L9.29368 7.66715C9.47759 7.46117 9.79367 7.44328 9.99965 7.62719Z" fill="#4D40E4"/>
</g>
<defs>
<clipPath id="clip0_19_33542">
<rect width="16" height="16" rx="5" fill="white"/>
</clipPath>
</defs>
</svg>
