<svg width="24" height="25" viewBox="0 0 24 25" fill="none" xmlns="http://www.w3.org/2000/svg">
<g id="check-done-01">
<path id="Icon" d="M6 15.9413L8 17.9413L12.5 13.4413M8 8.94128V6.14128C8 5.02118 8 4.46113 8.21799 4.0333C8.40973 3.65698 8.71569 3.35102 9.09202 3.15927C9.51984 2.94128 10.0799 2.94128 11.2 2.94128H18.8C19.9201 2.94128 20.4802 2.94128 20.908 3.15927C21.2843 3.35102 21.5903 3.65698 21.782 4.0333C22 4.46113 22 5.02118 22 6.14128V13.7413C22 14.8614 22 15.4214 21.782 15.8493C21.5903 16.2256 21.2843 16.5316 20.908 16.7233C20.4802 16.9413 19.9201 16.9413 18.8 16.9413H16M5.2 22.9413H12.8C13.9201 22.9413 14.4802 22.9413 14.908 22.7233C15.2843 22.5316 15.5903 22.2256 15.782 21.8493C16 21.4214 16 20.8614 16 19.7413V12.1413C16 11.0212 16 10.4611 15.782 10.0333C15.5903 9.65698 15.2843 9.35102 14.908 9.15927C14.4802 8.94128 13.9201 8.94128 12.8 8.94128H5.2C4.0799 8.94128 3.51984 8.94128 3.09202 9.15927C2.71569 9.35102 2.40973 9.65698 2.21799 10.0333C2 10.4611 2 11.0212 2 12.1413V19.7413C2 20.8614 2 21.4214 2.21799 21.8493C2.40973 22.2256 2.71569 22.5316 3.09202 22.7233C3.51984 22.9413 4.07989 22.9413 5.2 22.9413Z" stroke="#666666" stroke-width="2" stroke-linecap="round" stroke-linejoin="round"/>
</g>
</svg>
