<svg width="20" height="20" viewBox="0 0 20 20" fill="none" xmlns="http://www.w3.org/2000/svg">
<g id="Outline / Money / Ticket Sale">
<g id="Vector">
<path fill-rule="evenodd" clip-rule="evenodd" d="M8.2823 2.70837H11.7178C13.2532 2.70836 14.4691 2.70835 15.4206 2.83596C16.3996 2.96725 17.1919 3.24383 17.8168 3.86719C18.6747 4.72302 18.8833 5.90158 18.949 7.46501L18.9499 7.48515C18.9556 7.62169 18.9615 7.76111 18.9563 7.87853C18.9508 8.00344 18.9315 8.18383 18.8318 8.36201C18.7628 8.48532 18.6703 8.57055 18.6087 8.62158C18.5419 8.6769 18.4678 8.72704 18.3971 8.77165C18.2606 8.85772 18.0761 8.96076 17.8598 9.08156L17.8439 9.09043C17.5224 9.26993 17.3083 9.61085 17.3083 10C17.3083 10.3892 17.5224 10.7302 17.8439 10.9096L17.8598 10.9186C18.0761 11.0393 18.2606 11.1424 18.3971 11.2284C18.4678 11.273 18.5419 11.3232 18.6087 11.3785C18.6703 11.4295 18.7628 11.5148 18.8318 11.6381C18.9315 11.8163 18.9508 11.9966 18.9563 12.1215C18.9615 12.239 18.9556 12.3784 18.9499 12.5149L18.949 12.5351C18.8833 14.0985 18.6747 15.2771 17.8168 16.1329C17.1919 16.7562 16.3996 17.0328 15.4206 17.1641C14.4691 17.2917 13.2532 17.2917 11.7178 17.2917H8.2823C6.74684 17.2917 5.53096 17.2917 4.57946 17.1641C3.60046 17.0328 2.80821 16.7562 2.18329 16.1329C1.32534 15.2771 1.1168 14.0985 1.05107 12.5351L1.05022 12.5149C1.04446 12.3784 1.03857 12.239 1.04373 12.1216C1.04923 11.9966 1.06855 11.8163 1.16829 11.6381C1.23732 11.5148 1.32975 11.4295 1.39134 11.3785C1.45813 11.3232 1.5323 11.273 1.60302 11.2284C1.73946 11.1424 1.92399 11.0393 2.1403 10.9185L2.15621 10.9096C2.47763 10.7302 2.69176 10.3892 2.69176 10C2.69176 9.61085 2.47763 9.26993 2.15621 9.09043L2.14029 9.08154C1.92398 8.96075 1.73945 8.85771 1.60302 8.77165C1.5323 8.72704 1.45813 8.6769 1.39134 8.62158C1.32975 8.57055 1.23732 8.48532 1.16829 8.36201C1.06855 8.18383 1.04923 8.00344 1.04373 7.87853C1.03857 7.76111 1.04446 7.6217 1.05022 7.48516C1.0505 7.47844 1.05079 7.47172 1.05107 7.46501C1.1168 5.90158 1.32534 4.72302 2.18329 3.86719C2.80821 3.24383 3.60046 2.96725 4.57946 2.83596C5.53096 2.70835 6.74684 2.70836 8.2823 2.70837ZM17.7058 12.1536C17.7058 12.1536 17.7059 12.1544 17.7061 12.1563L17.7058 12.1536ZM17.7078 12.2717C17.7077 12.2772 17.7075 12.2828 17.7074 12.2887C17.706 12.342 17.7034 12.404 17.7001 12.4826C17.6351 14.0293 17.4238 14.7593 16.934 15.2479C16.5802 15.6009 16.0954 15.8124 15.2545 15.9252C14.3957 16.0404 13.2637 16.0417 11.6709 16.0417H8.32922C6.73633 16.0417 5.60438 16.0404 4.74561 15.9252C3.90466 15.8124 3.41991 15.6009 3.06608 15.2479C2.57626 14.7593 2.36499 14.0293 2.29997 12.4826C2.29666 12.404 2.29408 12.342 2.2927 12.2887C2.29255 12.2828 2.29242 12.2772 2.2923 12.2717C2.39619 12.2076 2.54539 12.124 2.76567 12.001C3.46554 11.6102 3.94176 10.8614 3.94176 10C3.94176 9.1387 3.46554 8.38991 2.76567 7.99908C2.54539 7.87606 2.39619 7.79252 2.2923 7.72838C2.29242 7.72292 2.29255 7.71725 2.2927 7.71135C2.29408 7.65805 2.29666 7.59611 2.29997 7.51752C2.36499 5.97082 2.57626 5.24078 3.06608 4.75218C3.41991 4.39923 3.90466 4.18765 4.74561 4.07487C5.60438 3.9597 6.73633 3.95837 8.32922 3.95837H11.6709C13.2637 3.95837 14.3957 3.9597 15.2545 4.07487C16.0954 4.18765 16.5802 4.39923 16.934 4.75218C17.4238 5.24078 17.6351 5.97082 17.7001 7.51752C17.7034 7.59611 17.706 7.65805 17.7074 7.71135C17.7075 7.71725 17.7077 7.72292 17.7078 7.72838C17.6039 7.79252 17.4547 7.87607 17.2344 7.99908C16.5345 8.38991 16.0583 9.1387 16.0583 10C16.0583 10.8614 16.5345 11.6102 17.2344 12.001C17.4547 12.124 17.6039 12.2076 17.7078 12.2717ZM17.8113 7.65897L17.8104 7.65975C17.8139 7.65653 17.8146 7.65627 17.8113 7.65897ZM17.7058 7.84653C17.7058 7.84653 17.7058 7.84555 17.7061 7.84377L17.7058 7.84653ZM2.18877 7.65897C2.18551 7.65628 2.18619 7.65653 2.18972 7.65975L2.18877 7.65897ZM2.29394 7.84377C2.29424 7.84554 2.29432 7.84653 2.29432 7.84653L2.29394 7.84377ZM2.29432 12.1536C2.29432 12.1536 2.29424 12.1545 2.29394 12.1563L2.29432 12.1536ZM2.18972 12.3403C2.18619 12.3436 2.18551 12.3438 2.18877 12.3411L2.18972 12.3403ZM17.8104 12.3403L17.8113 12.3411C17.8146 12.3438 17.8139 12.3436 17.8104 12.3403ZM12.942 7.0581C13.1861 7.30218 13.1861 7.69791 12.942 7.94198L7.94198 12.942C7.6979 13.1861 7.30217 13.1861 7.0581 12.942C6.81402 12.6979 6.81402 12.3022 7.0581 12.0581L12.0581 7.0581C12.3022 6.81402 12.6979 6.81402 12.942 7.0581Z" fill="#4D40E4"/>
<path d="M12.9167 12.0834C12.9167 12.5436 12.5436 12.9167 12.0834 12.9167C11.6231 12.9167 11.25 12.5436 11.25 12.0834C11.25 11.6231 11.6231 11.25 12.0834 11.25C12.5436 11.25 12.9167 11.6231 12.9167 12.0834Z" fill="#4D40E4"/>
<path d="M8.75004 7.91671C8.75004 8.37695 8.37694 8.75004 7.9167 8.75004C7.45647 8.75004 7.08337 8.37695 7.08337 7.91671C7.08337 7.45647 7.45647 7.08337 7.9167 7.08337C8.37694 7.08337 8.75004 7.45647 8.75004 7.91671Z" fill="#4D40E4"/>
</g>
</g>
</svg>
